<?xml version="1.0" encoding="UTF-8"?>
<svg version="1.1" xmlns="http://www.w3.org/2000/svg" width="1549" height="1551">
<path d="M0 0 C0 511.83 0 1023.66 0 1551 C-6.47442293 1550.35255771 -12.45685455 1549.64110149 -18.73046875 1548.20703125 C-19.54242203 1548.02494614 -20.35437531 1547.84286102 -21.19093323 1547.65525818 C-23.85888719 1547.05109131 -26.52352929 1546.43398656 -29.1875 1545.8125 C-30.58301086 1545.48795837 -30.58301086 1545.48795837 -32.00671387 1545.15686035 C-91.96357163 1531.11014426 -149.61107396 1509.77568936 -205 1483 C-206.07169434 1482.4834082 -207.14338867 1481.96681641 -208.24755859 1481.43457031 C-223.17412479 1474.20462364 -237.66163567 1466.330379 -252 1458 C-252.93086426 1457.4622998 -253.86172852 1456.92459961 -254.82080078 1456.37060547 C-267.42758539 1449.07747864 -279.75692482 1441.43693785 -291.89794922 1433.39257812 C-293.70024414 1432.1985839 -295.50781025 1431.012553 -297.31640625 1429.828125 C-317.69149436 1416.41106018 -337.48320089 1401.98697547 -356.27197266 1386.42822266 C-358.73154178 1384.39537731 -361.21088815 1382.38702377 -363.6875 1380.375 C-373.05724556 1372.68844227 -382.25908947 1364.87179253 -391.1484375 1356.6328125 C-393.84523279 1354.14289466 -396.57241212 1351.69207228 -399.3125 1349.25 C-402.76493879 1346.15546954 -406.0653868 1342.96349492 -409.3125 1339.65625 C-411.02305529 1337.97737166 -412.79903688 1336.42706865 -414.625 1334.875 C-422.80615158 1327.8101849 -430.46589234 1319.99335828 -437.4609375 1311.7578125 C-439.0694055 1309.92072976 -440.75838868 1308.21092213 -442.5 1306.5 C-445.53594925 1303.51127663 -448.34508659 1300.38293521 -451.125 1297.15625 C-453.17359094 1294.80037042 -455.27203002 1292.4949254 -457.375 1290.1875 C-462.10758059 1284.94155474 -466.56005191 1279.49375776 -471 1274 C-472.43666276 1272.2493126 -473.87417117 1270.49931885 -475.3125 1268.75 C-476.87604375 1266.83418469 -478.43846586 1264.91745364 -480 1263 C-480.67071533 1262.18088135 -480.67071533 1262.18088135 -481.35498047 1261.34521484 C-489.05970269 1251.92127894 -496.28475388 1242.22058411 -503.34570312 1232.30712891 C-505.00097075 1229.99864617 -506.67644341 1227.70634524 -508.359375 1225.41796875 C-514.88760024 1216.52347654 -520.98032064 1207.49428231 -526.72119141 1198.07470703 C-528.05627996 1195.9086928 -529.41994049 1193.76324377 -530.79296875 1191.62109375 C-578.94159228 1116.49444093 -613.5601106 1033.31985337 -647.25 861.4375 C-647.36583435 860.4275296 -647.36583435 860.4275296 -647.48400879 859.39715576 C-648.06346445 854.27094675 -648.55067073 849.13915479 -649 844 C-649.08720306 843.01885223 -649.17440613 842.03770447 -649.26425171 841.02682495 C-651.03878738 820.42031485 -651.3630047 799.90774157 -651.31785583 779.23803329 C-651.31242046 776.64962366 -651.31004983 774.06122316 -651.3079834 771.47280884 C-651.27783388 747.24130131 -650.95004217 723.14850884 -648.22784424 699.04443359 C-647.99499754 696.95511319 -647.77665603 694.86470177 -647.56201172 692.7734375 C-639.40301566 613.77879853 -618.46295966 535.63890074 -542 378 C-541.52739746 377.20287598 -541.05479492 376.40575195 -540.56787109 375.58447266 C-512.91183751 329.00642121 -479.53546424 285.2105517 -442.54345703 245.65673828 C-440.96725919 243.9648562 -439.40266269 242.26283562 -437.83984375 240.55859375 C-430.92664481 233.04633965 -423.83305959 225.72993836 -416.625 218.5 C-415.79291016 217.66331787 -414.96082031 216.82663574 -414.10351562 215.96459961 C-409.82683748 211.69862172 -405.4785661 207.59122529 -400.8984375 203.65332031 C-397.74101145 200.90356604 -394.72595114 198.00465974 -391.6875 195.125 C-386.56977623 190.3119328 -381.3605826 185.72087306 -375.8671875 181.3359375 C-372.37841456 178.49358571 -369.00724101 175.52997821 -365.625 172.5625 C-359.57509781 167.28341138 -353.36736917 162.29639837 -346.9453125 157.47265625 C-344.680299 155.75797736 -342.43387828 154.0202687 -340.1875 152.28125 C-329.45414338 143.99453362 -318.56262434 136.06087874 -307.28662109 128.52929688 C-305.03504231 127.02343637 -302.79217704 125.5053398 -300.55078125 123.984375 C-219.13050184 68.93372546 -126.82760375 28.01452056 0 0 Z " fill="#E26811" transform="translate(651,0)"/>
<path d="M0 0 C162.5765625 -0.0309375 162.5765625 -0.0309375 328.4375 -0.0625 C379.87387329 -0.07615601 379.87387329 -0.07615601 432.34936523 -0.09008789 C474.0489502 -0.09460449 474.0489502 -0.09460449 493.53675842 -0.09544373 C508.12448016 -0.09644158 522.71219731 -0.10076543 537.29991775 -0.10667343 C552.1564239 -0.11260938 567.01292713 -0.11484058 581.86943442 -0.11344495 C590.7158495 -0.11272442 599.56225375 -0.11474595 608.40866684 -0.1208076 C614.23745561 -0.12453259 620.06623712 -0.12468774 625.89502637 -0.12183534 C629.22280681 -0.12031179 632.55054925 -0.12097449 635.87833035 -0.12488258 C639.4576856 -0.12884257 643.03698545 -0.12676549 646.61633968 -0.12304783 C647.66781284 -0.12567485 648.719286 -0.12830188 649.80262199 -0.13100851 C650.74657916 -0.12876121 651.69053634 -0.1265139 652.66309828 -0.1241985 C653.48277646 -0.12435448 654.30245464 -0.12451046 655.14697155 -0.12467116 C657 -0 657 -0 658 1 C658.10075937 3.99717344 658.1361374 6.9713382 658.12939453 9.96899414 C658.13114685 10.912603 658.13289917 11.85621185 658.13470459 12.82841492 C658.13913878 15.98068027 658.13617246 19.13289021 658.1328125 22.28515625 C658.13348682 24.4939322 658.13445792 26.70270807 658.13571167 28.91148376 C658.13719212 33.5732391 658.13502936 38.23497539 658.13037109 42.89672852 C658.12477517 48.77434962 658.12798592 54.6519245 658.13380337 60.52954388 C658.18830976 125.01200121 658.18830976 125.01200121 655.6875 153.5625 C655.62308716 154.32095215 655.55867432 155.0794043 655.49230957 155.86083984 C647.83224439 245.59963603 622.14922324 333.71680656 505.6015625 520.9296875 C503.25742299 523.67734045 501.00116684 526.48800228 498.75 529.3125 C493.13418823 536.21422216 486.96105908 542.59142859 480.84277344 549.04394531 C478.63235878 551.39024131 476.45396854 553.76424394 474.2800293 556.14428711 C469.73236182 561.12016616 465.10989888 566.01408853 460.375 570.8125 C459.86557861 571.33489258 459.35615723 571.85728516 458.83129883 572.39550781 C457.59300738 573.63696409 456.30079628 574.8241988 455 576 C454.34 576 453.68 576 453 576 C453 576.66 453 577.32 453 578 C451.70703125 579.3046875 451.70703125 579.3046875 449.8125 580.875 C446.57994402 583.61639023 443.44132608 586.42730966 440.34741211 589.32226562 C435.06722038 594.26152425 429.70016015 599.00716464 424.05859375 603.53515625 C421.72003314 605.41974341 419.40354639 607.32220516 417.09765625 609.24609375 C407.61925353 617.1454937 397.97969436 624.74359055 388 632 C387.34628418 632.47614746 386.69256836 632.95229492 386.01904297 633.44287109 C369.56588395 645.37030213 352.54497348 656.64815563 334.96875 666.85595703 C333.57578088 667.66541305 332.18540216 668.4793345 330.796875 669.29638672 C255.57193024 713.52529153 170.70817926 742.74154586 39.75 757.25 C38.62408447 757.33016357 37.49816895 757.41032715 36.33813477 757.49291992 C24.18814724 758.24051795 12.24237437 758 0 758 C0 507.86 0 257.72 0 0 Z " fill="#FFC72C" transform="translate(891,0)"/>
<path d="M0 0 C1.72808899 0.00211487 1.72808899 0.00211487 3.49108887 0.00427246 C6.30786675 0.00792397 9.12463371 0.01304352 11.94140625 0.01953125 C11.95853666 72.08012333 11.97443738 144.14071564 11.98374939 216.2013092 C11.98388745 217.26693273 11.9840255 218.33255625 11.98416774 219.4304714 C11.98716028 242.58640166 11.98993052 265.74233194 11.99247158 288.89826226 C11.99371897 300.25305701 11.99501552 311.60785175 11.99633789 322.96264648 C11.99653403 324.65760196 11.99653403 324.65760196 11.99673413 326.38679896 C12.00099949 363.04717794 12.00851378 399.70755538 12.01770347 436.36793343 C12.02712582 474.02465823 12.03328931 511.68138219 12.03532124 549.33810816 C12.03560942 554.65042439 12.03593505 559.96274061 12.03628349 565.27505684 C12.03635092 566.32065118 12.03641834 567.36624552 12.03648781 568.44352454 C12.03767195 585.31050127 12.04231653 602.17747539 12.04823828 619.04445105 C12.0541108 635.97976526 12.05637794 652.91507685 12.05490763 669.85039204 C12.054144 679.92598034 12.05620184 690.00155912 12.06220379 700.07714572 C12.0659338 706.79452562 12.06608404 713.51189923 12.06323806 720.22927955 C12.06171793 724.0651265 12.06183502 727.90095536 12.06628943 731.73680042 C12.07103515 735.85446441 12.06817299 739.97208624 12.06445408 744.08975124 C12.06708109 745.30000938 12.06970811 746.51026752 12.07241473 747.75720015 C12.07016743 748.84311085 12.06792014 749.92902155 12.06560475 751.04783863 C12.06576073 751.99105346 12.06591671 752.9342683 12.06607741 753.9060654 C11.94140625 756.01953125 11.94140625 756.01953125 10.94140625 757.01953125 C9.49844181 757.11661344 8.05073108 757.14400496 6.60450453 757.14372975 C5.66050213 757.14597704 4.71649974 757.14822433 3.74389121 757.15053973 C2.69246327 757.14791271 1.64103533 757.1452857 0.55774593 757.14257908 C-0.55266942 757.14373292 -1.66308478 757.14488677 -2.80714908 757.14607558 C-6.57848361 757.14875094 -10.34977659 757.14421256 -14.12110901 757.13978577 C-16.83196645 757.13966526 -19.54282263 757.14105343 -22.25367969 757.14237493 C-28.17360516 757.14445454 -34.0935206 757.14279493 -40.0134449 757.13873672 C-48.81625167 757.13271895 -57.61905207 757.13239931 -66.42186052 757.13327871 C-81.2272573 757.13459482 -96.03264963 757.13124284 -110.83804512 757.12526131 C-125.50438013 757.11935109 -140.17071329 757.11549674 -154.83704948 757.11440849 C-156.20319113 757.11430538 -156.20319113 757.11430538 -157.59693159 757.11420019 C-162.22193214 757.11386187 -166.84693269 757.11356048 -171.47193324 757.11327332 C-204.25952902 757.11117102 -237.04712238 757.10442842 -269.8347168 757.0949707 C-301.69409167 757.08579132 -333.55346587 757.07870524 -365.4128418 757.07446289 C-366.394305 757.07433136 -367.37576821 757.07419984 -368.38697273 757.07406433 C-378.24292686 757.07274584 -388.09888099 757.07147003 -397.95483512 757.07022547 C-418.03384987 757.06768902 -438.11286458 757.06486777 -458.19187927 757.06187439 C-459.57678267 757.06166845 -459.57678267 757.06166845 -460.98966392 757.06145836 C-522.6793082 757.05225246 -584.36895114 757.03640666 -646.05859375 757.01953125 C-646.12978455 741.6118889 -646.18210485 726.20425936 -646.21403027 710.79648972 C-646.22927087 703.63673008 -646.24998987 696.47707565 -646.28491211 689.31738281 C-646.49515947 645.29741803 -645.74499816 601.62284657 -639.05859375 558.01953125 C-638.88634277 556.87226562 -638.7140918 555.725 -638.53662109 554.54296875 C-628.51622007 488.9616184 -608.11324791 425.6345792 -578.65136719 366.24023438 C-577.23061298 363.36736658 -575.83114138 360.4856148 -574.44140625 357.59765625 C-568.01070183 344.33001543 -560.65694067 331.64853674 -553.05859375 319.01953125 C-552.22424805 317.63169434 -552.22424805 317.63169434 -551.37304688 316.21582031 C-534.57764746 288.40655315 -515.78687285 261.78777762 -494.6640625 237.09375 C-492.29995188 234.3225397 -490.02015417 231.49025936 -487.74609375 228.64453125 C-482.40305652 222.07804364 -476.56871912 215.98582623 -470.76025391 209.83447266 C-468.72298387 207.66157948 -466.71790948 205.46119955 -464.7175293 203.25439453 C-457.22309364 194.98945208 -449.5144366 187.00839311 -441.01953125 179.76171875 C-438.7722749 177.76515235 -436.66964448 175.65940179 -434.55859375 173.51953125 C-430.55106473 169.4711785 -426.39181911 165.71319267 -422.05859375 162.01953125 C-420.97088233 161.07997304 -419.88368626 160.13981804 -418.796875 159.19921875 C-411.99705091 153.3251179 -405.14347864 147.54946458 -398.05859375 142.01953125 C-397.11113281 141.27574219 -396.16367188 140.53195312 -395.1875 139.765625 C-369.80646158 120.02481734 -343.04797195 101.85371029 -315.05859375 86.01953125 C-313.98915527 85.4069043 -312.9197168 84.79427734 -311.81787109 84.16308594 C-236.69619565 41.2150577 -152.10286968 13.53056628 0 0 Z " fill="#FFC72C" transform="translate(1537.05859375,793.98046875)"/>
</svg>
